<svg width="90" height="61" viewBox="0 0 90 61" fill="none" xmlns="http://www.w3.org/2000/svg">
<path d="M7.36174 46.6652C5.64696 46.6652 4.19826 46.1774 3.01565 45.2017C1.86261 44.2261 1.28609 42.8217 1.28609 40.9887C1.28609 39.5991 1.99565 38.3278 3.41478 37.1748C4.83391 35.9922 7.06609 35.1052 10.1113 34.5139C10.5843 34.4252 11.1165 34.3365 11.7078 34.2478C12.2991 34.1296 12.92 34.0113 13.5704 33.893V30.3896C13.5704 28.3791 13.3191 26.9748 12.8165 26.1765C12.3435 25.3487 11.5896 24.9348 10.5548 24.9348C9.84522 24.9348 9.28348 25.1713 8.86957 25.6443C8.45565 26.0878 8.18957 26.8713 8.07131 27.9948L7.98261 28.4826C7.92348 29.7539 7.61304 30.6852 7.05131 31.2765C6.48957 31.8678 5.79478 32.1635 4.96696 32.1635C4.19826 32.1635 3.56261 31.927 3.06 31.4539C2.55739 30.9809 2.30609 30.3452 2.30609 29.547C2.30609 28.3348 2.72 27.3148 3.54783 26.487C4.40522 25.6591 5.5287 25.0383 6.91826 24.6243C8.30783 24.2104 9.81565 24.0035 11.4417 24.0035C14.073 24.0035 16.0983 24.6539 17.5174 25.9548C18.9661 27.2261 19.6904 29.3104 19.6904 32.2078V42.0087C19.6904 43.3391 20.3113 44.0043 21.553 44.0043H22.5287L22.9278 44.3591C22.3661 45.0687 21.7452 45.6157 21.0652 46C20.4148 46.3843 19.4835 46.5765 18.2713 46.5765C16.9704 46.5765 15.9357 46.2809 15.167 45.6896C14.4278 45.0687 13.94 44.2557 13.7035 43.2504C12.8165 44.1965 11.9 45.0096 10.9539 45.6896C10.0374 46.34 8.84 46.6652 7.36174 46.6652ZM10.067 43.96C10.6583 43.96 11.2052 43.827 11.7078 43.5609C12.24 43.2652 12.8609 42.8217 13.5704 42.2304V34.78C13.2748 34.8391 12.9791 34.8983 12.6835 34.9574C12.3878 35.0165 12.0478 35.0757 11.6635 35.1348C10.3035 35.4896 9.20957 36.0957 8.38174 36.953C7.58348 37.7809 7.18435 38.9043 7.18435 40.3235C7.18435 41.5357 7.46522 42.4522 8.02696 43.073C8.5887 43.6643 9.2687 43.96 10.067 43.96ZM48.4777 21.6974C47.4725 21.6974 46.6151 21.387 45.9055 20.7661C45.2255 20.1157 44.8855 19.3026 44.8855 18.327C44.8855 17.3217 45.2255 16.5087 45.9055 15.8878C46.6151 15.267 47.4725 14.9565 48.4777 14.9565C49.4829 14.9565 50.3255 15.267 51.0055 15.8878C51.6855 16.5087 52.0255 17.3217 52.0255 18.327C52.0255 19.3026 51.6855 20.1157 51.0055 20.7661C50.3255 21.387 49.4829 21.6974 48.4777 21.6974ZM43.2447 46V45.5565L43.8655 45.3791C44.4569 45.2017 44.856 44.9357 45.0629 44.5809C45.2995 44.2261 45.4177 43.753 45.4177 43.1617V29.2809C45.4177 28.66 45.2995 28.2017 45.0629 27.9061C44.856 27.5809 44.4569 27.3591 43.8655 27.2409L43.2447 27.1078V26.6643L51.3603 24.0478L51.8038 24.4913L51.6708 30.7887V43.2061C51.6708 43.7974 51.7742 44.2704 51.9812 44.6252C52.2177 44.98 52.6169 45.2461 53.1786 45.4235L53.6221 45.5565V46H43.2447ZM55.7185 46V45.5565L56.2507 45.3791C57.3151 45.0243 57.8472 44.2852 57.8472 43.1617V19.4356C57.8472 18.8443 57.729 18.4009 57.4925 18.1052C57.2559 17.78 56.842 17.5435 56.2507 17.3956L55.6742 17.2626V16.8191L63.7898 14.9122L64.322 15.3113L64.1446 21.52V36.687C64.1446 37.7809 64.1446 38.8748 64.1446 39.9687C64.1742 41.033 64.189 42.0974 64.189 43.1617C64.189 43.753 64.3072 44.2409 64.5438 44.6252C64.7803 44.98 65.1794 45.2461 65.7411 45.4235L66.3177 45.5565V46H55.7185ZM79.4062 24.0035C81.3279 24.0035 82.9688 24.4026 84.3288 25.2009C85.6888 25.9696 86.7236 27.0339 87.4331 28.3939C88.1723 29.7243 88.5418 31.247 88.5418 32.9617C88.5418 33.287 88.527 33.627 88.4975 33.9817C88.4679 34.307 88.4088 34.6026 88.3201 34.8687H75.1044C75.134 38.0617 75.6957 40.3678 76.7896 41.787C77.9131 43.1765 79.5688 43.8713 81.7566 43.8713C83.2349 43.8713 84.4323 43.6348 85.3488 43.1617C86.2653 42.6887 87.1227 41.9939 87.921 41.0774L88.3644 41.4765C87.4479 43.1026 86.221 44.3739 84.6836 45.2904C83.1757 46.207 81.3575 46.6652 79.2288 46.6652C77.1296 46.6652 75.267 46.2217 73.641 45.3348C72.0149 44.4183 70.7436 43.1174 69.827 41.4322C68.9105 39.747 68.4523 37.7365 68.4523 35.4009C68.4523 32.9765 68.9844 30.9217 70.0488 29.2365C71.1131 27.5217 72.4731 26.2209 74.1288 25.3339C75.814 24.447 77.5731 24.0035 79.4062 24.0035ZM79.2731 24.8904C78.4157 24.8904 77.6766 25.1565 77.0557 25.6887C76.4644 26.1913 75.9914 27.1078 75.6366 28.4383C75.3114 29.7391 75.134 31.587 75.1044 33.9817H82.6879C82.9836 30.7591 82.8653 28.4383 82.3331 27.0191C81.801 25.6 80.781 24.8904 79.2731 24.8904Z" fill="#000"/>
<path fill-rule="evenodd" clip-rule="evenodd" d="M29.1003 35.8691L23.4785 45.0328V45.9989H41.7255L42.1246 39.3467H41.6811L40.129 42.6285C39.7446 43.3972 39.3307 44.0033 38.8872 44.4467C38.4437 44.8902 37.749 45.112 36.8029 45.112H29.8403L35.3611 35.8691H29.1003Z" fill="#38A5B7"/>
<path fill-rule="evenodd" clip-rule="evenodd" d="M36.5027 31.957L42.125 22.7924V21.8263H23.878L23.4789 28.4785H23.9224L25.4746 25.1967C25.8589 24.428 26.2728 23.8219 26.7163 23.3785C27.1598 22.935 27.8546 22.7132 28.8007 22.7132H35.7633L30.2418 31.957H36.5027Z" fill="#38A5B7"/>
</svg>
